# AST/ASF file generated using VICON BodyLanguage
# -----------------------------------------------
:version 1.10
:name VICON
:units
  mass 1.0
  length 0.45
  angle deg
:documentation
   .ast/.asf automatically generated from VICON data using
   VICON BodyBuilder and BodyLanguage model FoxedUp or BRILLIANT.MOD
:root
   order TX TY TZ RX RY RZ
   axis XYZ
   position 0 0 0  
   orientation 0 0 0 
:bonedata
  begin
     id 1 
     name lhipjoint
     direction 0.64773 -0.699417 0.302095 
     length 2.48597 
     axis 0 0 0  XYZ
  end
  begin
     id 2 
     name lfemur
     direction 0.34202 -0.939693 0  
     length 6.71947  
     axis 0 0 20  XYZ
    dof rx ry rz
    limits (-160.0 20.0)
           (-70.0 70.0)
           (-60.0 70.0)
  end
  begin
     id 3 
     name ltibia
     direction 0.34202 -0.939693 0   
     length 8.08777   
     axis 0 0 20   XYZ
    dof rx
    limits (-10.0 170.0)
  end
  begin
     id 4 
     name lfoot
     direction 0.0808503 -0.222134 0.971658   
     length 2.08264   
     axis -90 7.62852e-016 20   XYZ
    dof rx rz
    limits (-45.0 90.0)
           (-70.0 20.0)
  end
  begin
     id 5 
     name ltoes
     direction 1.53502e-011 -4.22007e-011 1   
     length 1.04662   
     axis -90 7.62852e-016 20   XYZ
    dof rx
    limits (-90.0 20.0)
  end
  begin
     id 6 
     name rhipjoint
     direction -0.610924 -0.726792 0.313919   
     length 2.39233  
     axis 0 0 0  XYZ 
  end
  begin
     id 7 
     name rfemur
     direction -0.34202 -0.939693 0   
     length 6.96955   
     axis 0 0 -20   XYZ
    dof rx ry rz
    limits (-160.0 20.0)
           (-70.0 70.0)
           (-70.0 60.0)
  end
  begin
     id 8 
     name rtibia
     direction -0.34202 -0.939693 0   
     length 8.19584   
     axis 0 0 -20   XYZ
    dof rx
    limits (-10.0 170.0)
 end
 begin
     id 9 
     name rfoot
     direction -0.077777 -0.213691 0.9738   
     length 2.07539  
     axis -90 -7.62852e-016 -20   XYZ
    dof rx rz
    limits (-45.0 90.0)
           (-20.0 70.0)
  end
  begin
     id 10 
     name rtoes
     direction -1.53558e-011 -4.22006e-011 1   
     length 1.04381   
     axis -90 -7.62852e-016 -20   XYZ
    dof rx
    limits (-90.0 20.0)
  end
  begin
     id 11 
     name lowerback
     direction -0.00971646 0.996074 0.0879841   
     length 1.67643   
     axis 0 0 0   XYZ
    dof rx ry rz
    limits (-20.0 45.0)
           (-30.0 30.0)
           (-30.0 30.0)
  end
  begin
     id 12 
     name upperback
     direction 0.0127391 0.991676 0.128127   
     length 1.63741   
     axis 0 0 0   XYZ
    dof rx ry rz
    limits (-20.0 45.0)
           (-30.0 30.0)
           (-30.0 30.0)
  end
  begin
     id 13 
     name thorax
     direction 0.0167583 0.996049 0.0872067   
     length 1.65931   
     axis 0 0 0   XYZ
    dof rx ry rz
    limits (-20.0 45.0)
           (-30.0 30.0)
           (-30.0 30.0)
  end
  begin
     id 14 
     name lowerneck
     direction -0.0317829 0.998312 0.0486079   
     length 1.79021   
     axis 0 0 0   XYZ
    dof rx ry rz
    limits (-20.0 45.0)
           (-30.0 30.0)
           (-30.0 30.0)
  end
  begin
     id 15 
     name upperneck
     direction 0.0896851 0.972452 -0.215159   
     length 1.78797   
     axis 0 0 0   XYZ
    dof rx ry rz
    limits (-20.0 45.0)
           (-30.0 30.0)
           (-30.0 30.0)
  end
  begin
     id 16
     name head
     direction 0.0310949 0.996503 -0.0775582  
     length 1.81549  
     axis 0 0 0   XYZ
    dof rx ry rz
    limits (-20.0 45.0)
           (-30.0 30.0)
           (-30.0 30.0)
  end
  begin
     id 17 
     name lclavicle
     direction 0.853638 0.502051 -0.138733  
     length 3.31627  
     axis 0 0 0   XYZ
    dof ry rz
    limits (-20.0 10.0)
           (0.0 20.0)
  end
  begin
     id 18 
     name lhumerus
     direction 1 -4.48962e-011 -1.41788e-018   
     length 5.54893   
     axis 180 -30 -90   XYZ
    dof rx ry rz
    limits (-60.0 90.0)
           (-90.0 90.0)
           (-90.0 90.0)
  end
  begin
     id 19
     name lradius
     direction 1 -4.48962e-011 -4.95754e-027   
     length 3.02898   
     axis 180 -30 -90   XYZ
    dof rx
    limits (-10.0 170.0)
  end
  begin
     id 20
     name lwrist
     direction 1 -4.48952e-011 -1.03764e-026   
     length 1.51449   
     axis 9.09556e-015 90 90   XYZ
    dof ry
    limits (-180.0 0.0)
 end
  begin
     id 21 
     name lhand
     direction 1 -4.4902e-011 -2.07528e-026   
     length 0.640951   
     axis 1.3242e-014 90 90   XYZ
    dof rx rz
    limits (-90.0 90.0)
           (-45.0 45.0)
  end
  begin
     id 22 
     name lfingers
     direction 1 -4.49014e-011 -4.15056e-026   
     length 0.516751   
     axis 2.64841e-014 90 90   XYZ
    dof rx
    limits (0.0 90.0)
  end
  begin
     id 23
     name lthumb
     direction 0.707107 -6.35008e-011 0.707107   
     length 0.741954   
     axis -90 45 2.85299e-015   XYZ
    dof rx rz
    limits (-45.0 45.0)
           (-45.0 45.0)
  end
  begin
     id 24 
     name rclavicle
     direction -0.888531 0.455324 -0.0565039   
     length 3.20126  
     axis 0 0 0   XYZ 
    dof ry rz
    limits (-10.0 20.0)
           (-20.0 0.0)
  end
  begin
     id 25 
     name rhumerus
     direction -1 -4.48946e-011 -8.98298e-028  
     length 5.3519   
     axis 180 30 90   XYZ
    dof rx ry rz
    limits (-90.0 60.0)
           (-90.0 90.0)
           (-90.0 90.0)
  end
  begin
     id 26 
     name rradius
     direction -1 -4.4899e-011 -3.18779e-027   
     length 3.02531   
     axis 180 30 90   XYZ
    dof rx
    limits (-10.0 170.0)
  end
  begin
     id 27 
     name rwrist
     direction -1 -4.4897e-011 -1.03764e-026   
     length 1.51266   
     axis 9.09556e-015 -90 -90   XYZ
    dof ry
    limits (-180.0 0.0)
  end
  begin
     id 28
     name rhand
     direction -1 -4.48941e-011 -2.07528e-026   
     length 0.78389   
     axis 1.3242e-014 -90 -90   XYZ
    dof rx rz
    limits (-90.0 90.0)
           (-45.0 45.0)
  end
  begin
     id 29
     name rfingers
     direction -1 -4.49012e-011 -4.15056e-026   
     length 0.631992   
     axis 2.64841e-014 -90 -90   XYZ
    dof rx
    limits (0.0 90.0)
  end
  begin
     id 30
     name rthumb
     direction -0.707107 -6.3496e-011 0.707107   
     length 0.907418   
     axis -90 -45 -2.85299e-015   XYZ
    dof rx rz
    limits (-45.0 45.0)
           (-45.0 45.0)
  end
:hierarchy
  begin
    root lhipjoint rhipjoint lowerback
    lhipjoint lfemur
    lfemur ltibia
    ltibia lfoot
    lfoot ltoes
    rhipjoint rfemur
    rfemur rtibia
    rtibia rfoot
    rfoot rtoes
    lowerback upperback
    upperback thorax
    thorax lowerneck lclavicle rclavicle
    lowerneck upperneck
    upperneck head
    lclavicle lhumerus
    lhumerus lradius
    lradius lwrist
    lwrist lhand lthumb
    lhand lfingers
    rclavicle rhumerus
    rhumerus rradius
    rradius rwrist
    rwrist rhand rthumb
    rhand rfingers
  end

#!OML:ASF E:\Style3\Style3.ASF
:FULLY-SPECIFIED
:DEGREES
1126
root 0.364258 17.8107 1.14616 -163.638 72.7381 180.973
lowerback -5.72265 -5.55805 -4.76783
upperback -8.54658 -6.93467 0.131879
thorax -5.13969 -3.01838 2.64694
lowerneck -4.86041 -3.48642 -5.80738
upperneck 16.0935 -0.533506 -17.2491
head 5.71733 -1.44755 -4.53219
rclavicle -3.31473e-014 -2.14687e-014
rhumerus -9.22076 29.1899 -12.7302
rradius 134.127
rwrist -58.9133
rhand 38.9688 4.65809
rfingers 7.12502
rthumb 61.535 -7.40303
lclavicle -3.31473e-014 -2.14687e-014
lhumerus -33.2675 -25.5141 77.3441
lradius 118.474
lwrist 26.8937
lhand 3.43585 29.9571
lfingers 7.12502
lthumb 28.877 57.7419
rfemur -13.1752 9.05539 18.4614
rtibia 14.861
rfoot -16.8906 -24.5949
rtoes -12.1431
lfemur -11.2113 -18.5724 -9.30967
ltibia -8.74653e-015
lfoot -5.01261 11.6616
ltoes -23.1479
1127
root 0.366017 17.8112 1.13891 -163.832 73.1704 180.895
lowerback -5.72623 -5.48107 -4.77359
upperback -8.57197 -6.8327 0.0885651
thorax -5.17737 -2.96642 2.60992
lowerneck -4.75327 -3.59227 -5.87044
upperneck 16.481 -0.655804 -17.0348
head 5.81466 -1.52085 -4.46972
rclavicle -3.79679e-014 -1.74931e-014
rhumerus -9.6272 28.7985 -13.4461
rradius 133.882
rwrist -58.5968
rhand 36.7138 5.05216
rfingers 7.12502
rthumb 59.6198 -9.12119
lclavicle -3.79679e-014 -1.74931e-014
lhumerus -33.4079 -25.2372 77.4339
lradius 118.258
lwrist 27.2832
lhand 3.43065 29.7511
lfingers 7.12502
lthumb 28.872 57.5368
rfemur -13.1278 9.10912 18.3537
rtibia 14.9077
rfoot -16.6492 -24.4052
rtoes -12.675
lfemur -10.9157 -18.1939 -9.5589
ltibia -3.02153e-014
lfoot -5.15492 11.6026
ltoes -22.584
1128
root 0.368228 17.8115 1.13243 -163.738 73.6154 181.043
lowerback -5.83471 -5.37849 -4.68409
upperback -8.56421 -6.69159 0.0493117
thorax -5.13279 -2.90383 2.51479
lowerneck -4.87182 -3.67152 -5.83769
upperneck 16.9904 -0.700712 -16.8503
head 5.99485 -1.57152 -4.43734
rclavicle -5.55603e-014 -1.82882e-014
rhumerus -10.0125 28.3062 -14.2372
rradius 133.526
rwrist -57.9285
rhand 35.2527 6.08119
rfingers 7.12502
rthumb 58.3571 -9.31543
lclavicle -5.55603e-014 -1.82882e-014
lhumerus -33.4943 -25.1686 77.4749
lradius 118.219
lwrist 27.7485
lhand 3.47528 29.6576
lfingers 7.12502
lthumb 28.9146 57.436
rfemur -13.1357 9.14207 18.3009
rtibia 14.9234
rfoot -16.5239 -24.0965
rtoes -13.1088
lfemur -10.6832 -17.7711 -9.72359
ltibia 7.95139e-015
lfoot -5.25801 11.5379
ltoes -22.4411
1129
root 0.368953 17.812 1.1273 -163.49 74.0223 181.336
lowerback -5.96034 -5.25427 -4.56067
upperback -8.50692 -6.52298 0.031156
thorax -5.0278 -2.83283 2.42002
lowerneck -5.09951 -3.7863 -5.83171
upperneck 17.4939 -0.779158 -16.6799
head 6.19254 -1.64449 -4.41021
rclavicle 4.69132e-014 1.59028e-015
rhumerus -10.43 27.7514 -15.008
rradius 133.411
rwrist -57.5193
rhand 33.9682 6.48337
rfingers 7.12502
rthumb 57.2348 -9.90534
lclavicle 4.69132e-014 1.59028e-015
lhumerus -33.6127 -25.1267 77.556
lradius 118.422
lwrist 28.0973
lhand 3.6327 29.8921
lfingers 7.12502
lthumb 29.065 57.6446
rfemur -13.1643 9.25111 18.2881
rtibia 14.9358
rfoot -16.4272 -23.8376
rtoes -13.6809
lfemur -10.5026 -17.3637 -9.8079
ltibia 3.97569e-015
lfoot -5.38804 11.4632
ltoes -21.9764
1130
root 0.367807 17.8116 1.12245 -163.407 74.4518 181.441
lowerback -6.09652 -5.13245 -4.53095
upperback -8.46256 -6.35367 0.0407442
thorax -4.91782 -2.75469 2.40494
lowerneck -5.25723 -3.89391 -5.83807
upperneck 17.9463 -0.851289 -16.5645
head 6.36273 -1.70976 -4.39593
rclavicle 5.36222e-014 2.70347e-014
rhumerus -10.7869 27.2193 -15.7173
rradius 133.419
rwrist -57.3493
rhand 32.5781 6.48533
rfingers 7.12502
rthumb 56.0087 -10.8977
lclavicle 5.36222e-014 2.70347e-014
lhumerus -33.7967 -25.1114 77.7492
lradius 118.586
lwrist 28.5436
lhand 3.53063 29.9321
lfingers 7.12502
lthumb 28.9675 57.7014
rfemur -13.2342 9.40098 18.2079
rtibia 14.9676
rfoot -16.298 -23.6598
rtoes -13.9588
lfemur -10.3448 -16.9475 -9.94693
ltibia -2.14687e-014
lfoot -5.50068 11.392
ltoes -21.3681
